<?xml version="1.0" encoding="UTF-8" standalone="no"?>
<!-- Created with Inkscape (http://www.inkscape.org/) -->

<svg
   xmlns:dc="http://purl.org/dc/elements/1.1/"
   xmlns:cc="http://creativecommons.org/ns#"
   xmlns:rdf="http://www.w3.org/1999/02/22-rdf-syntax-ns#"
   xmlns:svg="http://www.w3.org/2000/svg"
   xmlns="http://www.w3.org/2000/svg"
   xmlns:xlink="http://www.w3.org/1999/xlink"
   xmlns:sodipodi="http://sodipodi.sourceforge.net/DTD/sodipodi-0.dtd"
   xmlns:inkscape="http://www.inkscape.org/namespaces/inkscape"
   
   width="100%"
   height="100%"
   viewBox="0 0 992 1156"

   id="svg2"
   version="1.1"
   inkscape:version="0.48.4 r9939"
   sodipodi:docname="doge.svg"
   style="enable-background:new">
  <defs
     id="defs4">
    <linearGradient
       id="linearGradient3997">
      <stop
         style="stop-color:#000000;stop-opacity:1;"
         offset="0"
         id="stop3999" />
      <stop
         style="stop-color:#000000;stop-opacity:0;"
         offset="1"
         id="stop4001" />
    </linearGradient>
    <linearGradient
       id="linearGradient3822">
      <stop
         style="stop-color:#00ffff;stop-opacity:1;"
         offset="0"
         id="stop3824" />
      <stop
         style="stop-color:#62aebf;stop-opacity:1;"
         offset="1"
         id="stop3826" />
    </linearGradient>
    <linearGradient
       id="linearGradient5682">
      <stop
         style="stop-color:#eff8fa;stop-opacity:1;"
         offset="0"
         id="stop5684" />
      <stop
         style="stop-color:#d6dfe8;stop-opacity:1;"
         offset="1"
         id="stop5686" />
    </linearGradient>
    <linearGradient
       inkscape:collect="always"
       id="linearGradient3806">
      <stop
         style="stop-color:#000000;stop-opacity:1;"
         offset="0"
         id="stop3808" />
      <stop
         style="stop-color:#000000;stop-opacity:0;"
         offset="1"
         id="stop3810" />
    </linearGradient>
    <linearGradient
       inkscape:collect="always"
       xlink:href="#linearGradient3806"
       id="linearGradient3812"
       x1="294.28571"
       y1="292.36218"
       x2="344.28571"
       y2="356.64789"
       gradientUnits="userSpaceOnUse" />
    <linearGradient
       inkscape:collect="always"
       xlink:href="#linearGradient3806"
       id="linearGradient3815"
       gradientUnits="userSpaceOnUse"
       x1="294.28571"
       y1="292.36218"
       x2="344.28571"
       y2="356.64789"
       gradientTransform="translate(208.57143,450)" />
    <linearGradient
       inkscape:collect="always"
       xlink:href="#linearGradient3806-7"
       id="linearGradient3815-1"
       gradientUnits="userSpaceOnUse"
       x1="294.28571"
       y1="292.36218"
       x2="344.28571"
       y2="356.64789"
       gradientTransform="translate(208.57143,450)" />
    <linearGradient
       id="linearGradient3806-7">
      <stop
         style="stop-color:#000000;stop-opacity:1;"
         offset="0"
         id="stop3808-4" />
      <stop
         style="stop-color:#2b3535;stop-opacity:1;"
         offset="1"
         id="stop3810-0" />
    </linearGradient>
    <linearGradient
       y2="203.79074"
       x2="290"
       y1="339.50504"
       x1="282.85715"
       gradientTransform="translate(71.403943,-916.43928)"
       gradientUnits="userSpaceOnUse"
       id="linearGradient3849"
       xlink:href="#linearGradient3806-7"
       inkscape:collect="always" />
    <linearGradient
       inkscape:collect="always"
       xlink:href="#linearGradient3806-7"
       id="linearGradient5598"
       x1="229.8058"
       y1="25.768667"
       x2="234.51712"
       y2="489.81259"
       gradientUnits="userSpaceOnUse"
       gradientTransform="matrix(0.60226959,-0.28310187,0.28310187,0.60226959,177.20982,-819.56017)" />
    <linearGradient
       inkscape:collect="always"
       xlink:href="#linearGradient3806-7"
       id="linearGradient5606"
       x1="285.98477"
       y1="154.90909"
       x2="297.93002"
       y2="484.42249"
       gradientUnits="userSpaceOnUse" />
    <linearGradient
       inkscape:collect="always"
       xlink:href="#linearGradient3806-7"
       id="linearGradient5608"
       x1="234.33487"
       y1="-15.867249"
       x2="206.5804"
       y2="364.89999"
       gradientUnits="userSpaceOnUse"
       gradientTransform="matrix(0.55775073,-0.2435564,0.2621754,0.51814075,178.78561,-873.14043)" />
    <linearGradient
       inkscape:collect="always"
       xlink:href="#linearGradient3806-7-1"
       id="linearGradient5598-2"
       x1="229.8058"
       y1="25.768667"
       x2="234.51712"
       y2="489.81259"
       gradientUnits="userSpaceOnUse" />
    <linearGradient
       id="linearGradient3806-7-1">
      <stop
         style="stop-color:#db2934;stop-opacity:1;"
         offset="0"
         id="stop3808-4-4" />
      <stop
         style="stop-color:#804d69;stop-opacity:1;"
         offset="1"
         id="stop3810-0-9" />
    </linearGradient>
    <linearGradient
       gradientTransform="matrix(-0.98940757,-0.19852717,0.28888353,-0.67994285,669.64564,-544.72548)"
       y2="726.42273"
       x2="238.25978"
       y1="70.682434"
       x1="228.62602"
       gradientUnits="userSpaceOnUse"
       id="linearGradient5629"
       xlink:href="#linearGradient3806-7-1"
       inkscape:collect="always" />
    <linearGradient
       inkscape:collect="always"
       xlink:href="#linearGradient5682"
       id="linearGradient5688"
       x1="266.1839"
       y1="59.264351"
       x2="637.21082"
       y2="291.4072"
       gradientUnits="userSpaceOnUse"
       gradientTransform="translate(82.832513,-989.94949)" />
    <linearGradient
       inkscape:collect="always"
       xlink:href="#linearGradient3806-7-1"
       id="linearGradient5700"
       x1="432.12445"
       y1="62.056198"
       x2="594.31561"
       y2="-36.938751"
       gradientUnits="userSpaceOnUse"
       gradientTransform="translate(82.832513,-989.94949)" />
    <linearGradient
       inkscape:collect="always"
       xlink:href="#linearGradient3806-7"
       id="linearGradient5390"
       x1="548.78571"
       y1="-509.27609"
       x2="617.64282"
       y2="-395.70468"
       gradientUnits="userSpaceOnUse"
       spreadMethod="reflect"
       gradientTransform="matrix(1.0721248,0,0,1.0271237,-315.60377,-478.59918)" />
    <linearGradient
       inkscape:collect="always"
       xlink:href="#linearGradient3806-7"
       id="linearGradient5398"
       x1="665.92859"
       y1="-469.16455"
       x2="779.5625"
       y2="-354.87881"
       gradientUnits="userSpaceOnUse"
       spreadMethod="reflect"
       gradientTransform="matrix(1.0721248,0,0,1.0271237,-315.60377,-478.59918)" />
    <linearGradient
       inkscape:collect="always"
       xlink:href="#linearGradient3806-7"
       id="linearGradient5406"
       x1="1047.9286"
       y1="-220.98595"
       x2="878.3399"
       y2="-265.98596"
       gradientUnits="userSpaceOnUse"
       spreadMethod="reflect"
       gradientTransform="matrix(1.0721248,0,0,1.0271237,-315.60377,-478.59918)" />
    <linearGradient
       inkscape:collect="always"
       xlink:href="#linearGradient3806-7"
       id="linearGradient5414"
       x1="1181.6696"
       y1="-250.558"
       x2="1032.5"
       y2="-224.84372"
       gradientUnits="userSpaceOnUse"
       spreadMethod="reflect"
       gradientTransform="matrix(1.0721248,0,0,1.0271237,-315.60377,-478.59918)" />
    <linearGradient
       inkscape:collect="always"
       xlink:href="#linearGradient3822"
       id="linearGradient3828"
       x1="667.48547"
       y1="1019.6252"
       x2="683.04407"
       y2="1043.1112"
       gradientUnits="userSpaceOnUse"
       gradientTransform="translate(-200.0102,-511.27932)" />
    <linearGradient
       inkscape:collect="always"
       xlink:href="#linearGradient3806-7-1"
       id="linearGradient3844"
       x1="360.77094"
       y1="341.48413"
       x2="266.93521"
       y2="233.62698"
       gradientUnits="userSpaceOnUse"
       gradientTransform="translate(331.33003,179.80715)" />
    <linearGradient
       inkscape:collect="always"
       xlink:href="#linearGradient3806-7-1"
       id="linearGradient3854"
       x1="165.47975"
       y1="1507.9618"
       x2="91.669266"
       y2="1335.819"
       gradientUnits="userSpaceOnUse"
       gradientTransform="translate(331.33003,-872.55495)" />
    <linearGradient
       inkscape:collect="always"
       xlink:href="#linearGradient3806-7-1-8"
       id="linearGradient3854-8"
       x1="165.47975"
       y1="1507.9618"
       x2="91.669266"
       y2="1335.819"
       gradientUnits="userSpaceOnUse"
       gradientTransform="translate(331.33003,-872.55495)" />
    <linearGradient
       id="linearGradient3806-7-1-8">
      <stop
         style="stop-color:#db2934;stop-opacity:1;"
         offset="0"
         id="stop3808-4-4-1" />
      <stop
         style="stop-color:#804d69;stop-opacity:1;"
         offset="1"
         id="stop3810-0-9-2" />
    </linearGradient>
    <linearGradient
       y2="1335.819"
       x2="91.669266"
       y1="1507.9618"
       x1="165.47975"
       gradientTransform="translate(49.639771,-1008.4566)"
       gradientUnits="userSpaceOnUse"
       id="linearGradient3923"
       xlink:href="#linearGradient3806-7-1-8"
       inkscape:collect="always" />
    <linearGradient
       inkscape:collect="always"
       xlink:href="#linearGradient3806-7-1-9"
       id="linearGradient3844-4"
       x1="360.77094"
       y1="341.48413"
       x2="266.93521"
       y2="233.62698"
       gradientUnits="userSpaceOnUse"
       gradientTransform="translate(331.33003,179.80715)" />
    <linearGradient
       id="linearGradient3806-7-1-9">
      <stop
         style="stop-color:#db2934;stop-opacity:1;"
         offset="0"
         id="stop3808-4-4-8" />
      <stop
         style="stop-color:#804d69;stop-opacity:1;"
         offset="1"
         id="stop3810-0-9-24" />
    </linearGradient>
    <linearGradient
       y2="233.62698"
       x2="266.93521"
       y1="341.48413"
       x1="360.77094"
       gradientTransform="translate(62.932634,72.306724)"
       gradientUnits="userSpaceOnUse"
       id="linearGradient3957"
       xlink:href="#linearGradient3806-7-1-9"
       inkscape:collect="always" />
    <linearGradient
       inkscape:collect="always"
       xlink:href="#linearGradient3806-7-1-9"
       id="linearGradient4003"
       x1="379.59113"
       y1="399.78986"
       x2="572.98828"
       y2="399.78986"
       gradientUnits="userSpaceOnUse" />
    <linearGradient
       inkscape:collect="always"
       xlink:href="#linearGradient3806-7-1-83"
       id="linearGradient3854-9"
       x1="165.47975"
       y1="1507.9618"
       x2="91.669266"
       y2="1335.819"
       gradientUnits="userSpaceOnUse"
       gradientTransform="translate(331.33003,-872.55495)" />
    <linearGradient
       id="linearGradient3806-7-1-83">
      <stop
         style="stop-color:#db2934;stop-opacity:1;"
         offset="0"
         id="stop3808-4-4-86" />
      <stop
         style="stop-color:#804d69;stop-opacity:1;"
         offset="1"
         id="stop3810-0-9-9" />
    </linearGradient>
    <linearGradient
       inkscape:collect="always"
       xlink:href="#linearGradient3806-7-1-83"
       id="linearGradient3844-8"
       x1="360.77094"
       y1="341.48413"
       x2="266.93521"
       y2="233.62698"
       gradientUnits="userSpaceOnUse"
       gradientTransform="translate(-134.76548,-258.3062)" />
    <linearGradient
       id="linearGradient4020">
      <stop
         style="stop-color:#db2934;stop-opacity:1;"
         offset="0"
         id="stop4022" />
      <stop
         style="stop-color:#804d69;stop-opacity:1;"
         offset="1"
         id="stop4024" />
    </linearGradient>
    <linearGradient
       inkscape:collect="always"
       xlink:href="#linearGradient3806-7-1-83"
       id="linearGradient3890"
       gradientUnits="userSpaceOnUse"
       x1="252.01173"
       y1="1641.9818"
       x2="610.01056"
       y2="1641.9818" />
    <linearGradient
       inkscape:collect="always"
       xlink:href="#linearGradient3806-7-1-9"
       id="linearGradient3892"
       gradientUnits="userSpaceOnUse"
       x1="436.01971"
       y1="1530.7234"
       x2="629.41687"
       y2="1530.7234" />
    <linearGradient
       inkscape:collect="always"
       xlink:href="#linearGradient3806-7-1-83"
       id="linearGradient3985"
       x1="68.94101"
       y1="1603.8174"
       x2="16.928585"
       y2="1523.1031"
       gradientUnits="userSpaceOnUse"
       gradientTransform="translate(347.72438,-602.70933)" />
    <linearGradient
       inkscape:collect="always"
       xlink:href="#linearGradient3806-7-1-83"
       id="linearGradient3993"
       x1="123.0707"
       y1="1433.2875"
       x2="74.785721"
       y2="1353.2875"
       gradientUnits="userSpaceOnUse"
       gradientTransform="matrix(0.99779788,-0.06632786,0.06632786,0.99779788,299.95513,-486.31977)" />
    <linearGradient
       inkscape:collect="always"
       xlink:href="#linearGradient3806-7-1-83-9"
       id="linearGradient3993-4"
       x1="123.0707"
       y1="1433.2875"
       x2="74.785721"
       y2="1353.2875"
       gradientUnits="userSpaceOnUse"
       gradientTransform="matrix(0.92946044,-0.06295458,0.06178518,0.94705217,28.009673,-446.53013)" />
    <linearGradient
       id="linearGradient3806-7-1-83-9">
      <stop
         style="stop-color:#db2934;stop-opacity:1;"
         offset="0"
         id="stop3808-4-4-86-8" />
      <stop
         style="stop-color:#804d69;stop-opacity:1;"
         offset="1"
         id="stop3810-0-9-9-2" />
    </linearGradient>
    <linearGradient
       inkscape:collect="always"
       xlink:href="#linearGradient3806-7-1-83-9"
       id="linearGradient3985-4"
       x1="68.94101"
       y1="1603.8174"
       x2="16.928585"
       y2="1523.1031"
       gradientUnits="userSpaceOnUse"
       gradientTransform="translate(545.71428,-105.71428)" />
    <linearGradient
       id="linearGradient4010">
      <stop
         style="stop-color:#db2934;stop-opacity:1;"
         offset="0"
         id="stop4012" />
      <stop
         style="stop-color:#804d69;stop-opacity:1;"
         offset="1"
         id="stop4014" />
    </linearGradient>
    <linearGradient
       y2="1523.1031"
       x2="16.928585"
       y1="1603.8174"
       x1="68.94101"
       gradientTransform="matrix(0.93151174,0,0,0.9491423,72.507293,-557.00043)"
       gradientUnits="userSpaceOnUse"
       id="linearGradient4018"
       xlink:href="#linearGradient3806-7-1-83-9"
       inkscape:collect="always" />
    <linearGradient
       inkscape:collect="always"
       xlink:href="#linearGradient5682"
       id="linearGradient4055"
       x1="380.95364"
       y1="1563.6488"
       x2="298.495"
       y2="1517.1818"
       gradientUnits="userSpaceOnUse"
       gradientTransform="translate(-197.9899,-496.99505)" />
    <linearGradient
       inkscape:collect="always"
       xlink:href="#linearGradient3806-7"
       id="linearGradient4779"
       x1="849.92511"
       y1="361.55063"
       x2="1055.3805"
       y2="329.22574"
       gradientUnits="userSpaceOnUse"
       gradientTransform="translate(-197.9899,-496.99505)" />
    <linearGradient
       inkscape:collect="always"
       xlink:href="#linearGradient3806-7"
       id="linearGradient4781"
       x1="340.32242"
       y1="187.41066"
       x2="1172.8627"
       y2="106.59846"
       gradientUnits="userSpaceOnUse"
       gradientTransform="translate(-197.9899,-496.99505)" />
  </defs>
  <sodipodi:namedview
     id="base"
     pagecolor="#ffffff"
     bordercolor="#666666"
     borderopacity="1.0"
     inkscape:pageopacity="0.0"
     inkscape:pageshadow="2"
     inkscape:zoom="0.24748738"
     inkscape:cx="70.916407"
     inkscape:cy="589.49713"
     inkscape:document-units="px"
     inkscape:current-layer="layer5"
     showgrid="false"
     inkscape:window-width="1366"
     inkscape:window-height="706"
     inkscape:window-x="1912"
     inkscape:window-y="304"
     inkscape:window-maximized="1"
     inkscape:object-paths="false"
     fit-margin-top="0"
     fit-margin-left="0"
     fit-margin-right="0"
     fit-margin-bottom="0" />
  <metadata
     id="metadata7">
    <rdf:RDF>
      <cc:Work
         rdf:about="">
        <dc:format>image/svg+xml</dc:format>
        <dc:type
           rdf:resource="http://purl.org/dc/dcmitype/StillImage" />
        <dc:title />
      </cc:Work>
    </rdf:RDF>
  </metadata>
  <g
     inkscape:label="Layer 1"
     inkscape:groupmode="layer"
     id="layer1"
     transform="translate(-20.825031,1021.2028)">
    <path
       style="fill:#d38d5f;stroke:#000000;stroke-width:1px;stroke-linecap:butt;stroke-linejoin:miter;stroke-opacity:1"
       d="m 168.5468,-576.15874 c 4.28571,-48.57143 8.57142,-82.85714 25.71429,-97.14285 17.14285,-14.28572 62.85714,-25.71429 72.85714,-30 10,-4.28572 38.57143,-14.28572 44.28571,-25.71429 5.71429,-11.42857 32.85715,-22.85714 50,-22.85714 17.14286,0 78.57143,4.28571 92.85715,5.71428 14.28571,1.42857 60,4.28572 65.71428,5.71429 5.71429,1.42857 60,0 74.28572,17.14286 14.28571,17.14285 61.42857,57.14285 67.14285,65.71428 5.71429,8.57143 24.28572,41.42857 24.28572,52.85714 0,11.42858 -7.14286,38.57143 -4.28572,52.85715 2.85715,14.28571 5.71429,5.71428 12.85715,32.85714 7.14285,27.14286 15.71428,71.42857 22.85714,95.71429 7.14286,24.28571 12.85714,40 1.42857,62.85714 -11.42857,22.85714 -31.42857,38.57143 -64.28571,54.28571 -32.85715,15.71429 -71.42858,31.42857 -98.57143,35.71429 -27.14286,4.28571 -80,12.85714 -108.57143,12.85714 -28.57143,0 -118.57143,-14.28571 -137.14286,-20 -18.57143,-5.71428 -124.28571,-104.28571 -131.42857,-122.85714 -7.14286,-18.57143 -10,-175.71429 -10,-175.71429 z"
       id="path3000"
       inkscape:connector-curvature="0" />
    <path
       style="fill:#d3bc5f;stroke:#000000;stroke-width:1px;stroke-linecap:butt;stroke-linejoin:miter;stroke-opacity:1"
       d="m 498.5468,-564.73017 c 0,0 78.57143,-21.42857 105.71429,8.57143 27.14285,30 37.14285,105.71429 22.85714,137.14286 -14.28572,31.42857 -57.14286,87.14286 -84.28572,108.57143 -27.14286,21.42857 -122.85714,51.42857 -162.85714,54.28571 -40,2.85715 -124.28571,-10 -138.57143,-20 -14.28571,-10 -48.57143,-47.14285 -55.71428,-54.28571 -7.14286,-7.14286 -31.42858,-48.57143 -35.71429,-70 -4.28572,-21.42857 -11.42857,-67.14286 -5.71429,-88.57143 5.71429,-21.42857 15.71429,-47.14286 25.71429,-71.42857 10,-24.28572 -2.85715,-38.57143 18.57143,-54.28572 21.42857,-15.71428 40,-27.14285 38.57143,-10 -1.42857,17.14286 -11.42857,17.14286 -7.14286,44.28572 4.28572,27.14286 37.14286,42.85714 37.14286,42.85714 l 148.57143,21.42857 c 45.71428,-12.85714 92.85714,-48.57143 92.85714,-48.57143 z"
       id="path2998"
       inkscape:connector-curvature="0"
       sodipodi:nodetypes="cssssssssssssccc" />
    <path
       style="fill:#1a1a1a;fill-opacity:1;stroke:#000000;stroke-width:1px;stroke-linecap:butt;stroke-linejoin:miter;stroke-opacity:1"
       d="m 252.0749,-584.81682 c -10,-5.71429 -12.09953,-12.77049 -12.09953,-18.48477 0,-5.71429 -4.28571,-2.85715 0,-15.71429 4.28572,-12.85714 7.14286,-17.14286 12.85714,-20 5.71429,-2.85714 12.85715,-4.28571 20,-1.42857 7.14286,2.85714 11.42858,10 11.42858,10 0,0 4.28571,10 2.85714,18.57143 -1.42857,8.57143 -14.28572,18.57143 -14.28572,18.57143 z"
       id="path3002"
       inkscape:connector-curvature="0"
       sodipodi:nodetypes="csssscscc" />
    <path
       style="fill:#1a1a1a;fill-opacity:1;stroke:#000000;stroke-width:1px;stroke-linecap:butt;stroke-linejoin:miter;stroke-opacity:1"
       d="m 389.97537,-566.15874 c 15.71429,8.57143 41.42857,15.71429 50,11.42857 8.57143,-4.28571 28.57143,-20 28.57143,-20 l -2.85714,-20 c 0,0 -9.49492,-10.2451 -16.89032,-13.1889 -6.76784,-2.69399 -12.6046,-4.53826 -21.17603,-3.10968 -8.57143,1.42857 -11.93365,3.44144 -20.50508,12.01287 -8.57143,8.57143 -17.14286,14.28571 -20,20 -2.85714,5.71429 2.85714,12.85714 2.85714,12.85714 z"
       id="path3004"
       inkscape:connector-curvature="0"
       sodipodi:nodetypes="csccssssc" />
    <path
       style="fill:#ffffff;fill-opacity:1;stroke:#000000;stroke-width:1px;stroke-linecap:butt;stroke-linejoin:miter;stroke-opacity:1"
       d="m 252.83251,-594.01588 c -7.14285,-7.14286 -8.57142,-9.28572 -8.57142,-16.42857 0,-7.14286 4.28571,-16.42857 4.28571,-16.42857 0,0 2.85714,-4.28572 5.71429,-6.42858 2.85714,-2.14285 8.57142,-4.28571 12.14285,-4.28571 3.57143,0 8.57143,2.14286 8.57143,2.14286 l 7.85714,7.85714 0.71429,10 c 0,0 -0.71429,8.57143 -2.14286,11.42857 -1.42857,2.85714 -7.14285,6.42857 -7.14285,6.42857 0,0 0.71428,2.14286 -5.71429,5 -6.42857,2.85715 -15.71429,0.71429 -15.71429,0.71429 z"
       id="path3006"
       inkscape:connector-curvature="0" />
    <path
       style="fill:#ffffff;fill-opacity:1;stroke:#000000;stroke-width:1px;stroke-linecap:butt;stroke-linejoin:miter;stroke-opacity:1"
       d="m 406.40394,-570.44445 c -2.14285,-4.28572 -5.71428,-12.14286 -3.57143,-15 2.14286,-2.85715 4.56967,-8.09191 8.98985,-11.26269 4.74746,-3.40555 12.22952,-6.42857 16.51523,-6.42857 4.28572,0 8.82396,1.42857 11.68111,2.14285 2.85714,0.71429 8.27556,4.19906 12.81381,7.14286 3.79002,2.45845 8.57143,7.69126 8.57143,7.69126 0,0 6.42857,3.57143 1.42857,7.85714 -5,4.28572 -3.57142,3.57143 -9.28571,7.14286 -5.71429,3.57143 -5.28289,3.58104 -18.57142,6.42858 -10.00001,2.14285 -15.71429,0.71428 -21.42858,-1e-5 -5.71429,-0.71428 -7.14286,-5.71428 -7.14286,-5.71428 z"
       id="path3008"
       inkscape:connector-curvature="0"
       sodipodi:nodetypes="cssssscssssc" />
    <path
       style="fill:#000000;fill-opacity:1;stroke:#000000;stroke-width:1px;stroke-linecap:butt;stroke-linejoin:miter;stroke-opacity:1"
       d="m 250.68966,-600.44445 c -0.71429,-3.92857 -1.07143,-9.64286 -0.35715,-13.57143 0.71429,-3.92857 1.07143,-7.85714 3.21429,-10.35714 2.14286,-2.5 0.71429,-0.71429 6.07143,-3.92858 5.35714,-3.21428 6.78571,-3.57142 9.28571,-3.57142 2.5,0 10.35715,2.5 10.35715,2.5 l 3.57142,5 c 0,0 1.07143,7.85714 0.71429,9.64285 -0.35714,1.78572 -1.42857,5.35715 -3.21429,8.57143 -1.78571,3.21429 -0.71428,3.57143 -4.28571,5.71429 -3.57143,2.14285 -2.5,1.78571 -6.42857,3.21428 -3.92857,1.42857 -3.21429,4.28572 -8.57143,2.14286 -5.35714,-2.14286 -10.35714,-5.35714 -10.35714,-5.35714 z"
       id="path3010"
       inkscape:connector-curvature="0" />
    <path
       style="fill:#000000;fill-opacity:1;stroke:#000000;stroke-width:1px;stroke-linecap:butt;stroke-linejoin:miter;stroke-opacity:1"
       d="m 419.97537,-569.37302 c -2.14286,-1.42858 -3.92857,-2.85715 -3.57143,-6.78572 0.35715,-3.92857 1.78572,-7.5 3.57143,-9.28571 1.78572,-1.78572 3.21429,-3.21429 5.35714,-4.64286 2.14286,-1.42857 0.71429,-1.42857 4.28572,-3.21429 3.57143,-1.78571 3.92857,-2.5 7.5,-2.85714 3.57143,-0.35714 5.71428,-0.35714 7.85714,0.71429 2.14286,1.07143 5.71429,3.92857 7.14286,5 1.42857,1.07143 6.07142,1.78571 7.14285,3.57142 1.07143,1.78572 4.64286,4.28572 5.00001,6.07143 0.35714,1.78571 -3.92858,4.64286 -7.14286,6.78572 -3.21429,2.14286 -5.35714,3.57143 -8.21429,5 -2.85714,1.42857 -5.35714,2.85714 -11.07143,3.21428 -5.71428,0.35715 -13.57142,-0.71428 -15,-1.07142 -1.42857,-0.35715 -2.85714,-2.5 -2.85714,-2.5 z"
       id="path3012"
       inkscape:connector-curvature="0"
       sodipodi:nodetypes="csssssssssssssc" />
    <path
       style="fill:#ffffff;fill-opacity:1;stroke:#000000;stroke-width:1px;stroke-linecap:butt;stroke-linejoin:miter;stroke-opacity:1"
       d="m 279.19981,-626.02876 c -2.5,2.14286 -2.85715,2.5 -2.85715,4.28572 0,1.78571 2.5,4.64286 3.92858,4.64286 1.42857,0 2.85714,-2.14286 2.85714,-2.14286 0,0 -1.07143,-1.78572 -1.78572,-3.92857 -0.71428,-2.14286 -2.14285,-2.85715 -2.14285,-2.85715 z"
       id="path3016"
       inkscape:connector-curvature="0" />
    <path
       style="fill:#ffffff;fill-opacity:1;stroke:#000000;stroke-width:1px;stroke-linecap:butt;stroke-linejoin:miter;stroke-opacity:1"
       d="m 449.47029,-590.63571 c -1.42857,1.42857 -3.57143,1.78571 -1.42857,3.21428 2.14286,1.42857 1.42857,1.78572 3.21429,1.78572 1.78571,0 2.5,-1.07143 2.5,-1.07143 l -0.71429,-2.5 z"
       id="path3018"
       inkscape:connector-curvature="0" />
    <path
       style="fill:#c87137;stroke:#000000;stroke-width:1px;stroke-linecap:butt;stroke-linejoin:miter;stroke-opacity:1"
       d="m 331.08494,-613.67162 c -5.05077,0 -53.53809,24.24366 -57.5787,29.29442 -4.04061,5.05077 -18.18274,16.16244 -26.26396,21.21321 -8.08123,5.05076 -29.29443,14.14213 -34.34519,18.18274 -5.05076,4.04061 -14.14214,24.24366 -16.16244,30.30458 -2.02031,6.06091 -5.05076,23.23351 -5.05076,29.29442 0,6.06092 0,29.29443 0,33.33504 0,4.04061 11.11167,27.27412 14.14213,32.32488 3.03046,5.05076 6.06092,5.05076 17.17259,20.20305 11.11168,15.15229 10.10153,19.1929 21.21321,25.25381 11.11168,6.06092 12.12183,6.06092 24.24366,7.07107 12.12183,1.01015 17.17259,-1.01015 28.28427,-1.01015 11.11168,0 18.18275,-4.04061 24.24366,-5.05077 6.06092,-1.01015 11.11168,-4.04061 18.18275,-6.06091 7.07106,-2.02031 16.16244,-6.06092 21.2132,-9.09137 5.05076,-3.03046 9.09137,-5.05077 13.13198,-7.07107 4.04061,-2.02031 8.08122,-1.01015 13.13199,-8.08122 5.05076,-7.07107 9.09137,-10.10153 10.10152,-15.15229 1.01015,-5.05076 0,-11.11168 1.01015,-18.18275 1.01016,-7.07106 1.01016,-8.08122 1.01016,-17.17259 0,-9.09137 2.0203,-6.06091 -2.02031,-22.22335 -4.04061,-16.16245 -2.0203,-17.1726 -9.09137,-34.34519 -7.07107,-17.17259 -7.07107,-16.16244 -14.14214,-34.34519 -7.07106,-18.18274 -10.10152,-23.23351 -12.12183,-32.32488 -2.0203,-9.09137 -3.03045,-18.18275 -7.07107,-24.24366 -4.04061,-6.06092 -11.11167,-12.12183 -11.11167,-12.12183 z"
       id="path3022"
       inkscape:connector-curvature="0" />
    <path
       style="fill:#1a1a1a;fill-opacity:1;stroke:#000000;stroke-width:1px;stroke-linecap:butt;stroke-linejoin:miter;stroke-opacity:1"
       d="m 234.11029,-543.9711 c 0,0 8.08122,-3.03045 19.1929,-1.01015 11.11168,2.02031 26.26397,8.08122 30.30458,9.09138 4.04061,1.01015 16.16244,10.10152 16.16244,10.10152 0,0 4.04061,7.07107 5.05076,11.11168 1.01015,4.04061 -1.01015,12.12183 -4.04061,16.16244 -3.03046,4.04061 -5.05076,8.08122 -14.14214,15.15229 -9.09137,7.07107 -14.14213,15.15229 -29.29442,18.18274 -15.15229,3.03046 -15.15229,6.06092 -26.26397,3.03046 -11.11167,-3.03046 -13.13198,-2.0203 -19.19289,-9.09137 -6.06092,-7.07107 -8.08122,-8.08122 -9.09138,-17.1726 -1.01015,-9.09137 -2.0203,-12.12183 -2.0203,-16.16244 0,-4.04061 3.03046,-21.2132 3.03046,-21.2132 0,0 7.07106,-9.09137 12.12183,-11.11168 5.05076,-2.0203 18.18274,-7.07107 18.18274,-7.07107 z"
       id="path3024"
       inkscape:connector-curvature="0" />
    <path
       style="fill:#1a1a1a;fill-opacity:1;stroke:#000000;stroke-width:1px;stroke-linecap:butt;stroke-linejoin:miter;stroke-opacity:1"
       d="m 211.88694,-435.88477 c 17.17259,-2.02031 19.19289,-5.05077 33.33503,-3.03046 14.14214,2.0203 15.15229,3.03046 24.24366,7.07107 9.09137,4.04061 10.10153,3.03045 16.16244,6.06091 6.06092,3.03046 3.03046,2.02031 13.13198,7.07107 10.10153,5.05076 2.02031,5.05076 14.14214,6.06092 12.12183,1.01015 15.15229,1.01015 20.20305,1.01015 5.05076,0 1.01015,0 9.09137,0 8.08122,0 9.09138,-1.01015 17.1726,-2.02031 8.08122,-1.01015 5.05076,0 15.15229,-2.0203 10.10152,-2.02031 1.01015,9.09137 -12.12183,12.12183 -13.13199,3.03046 -20.20306,5.05076 -28.28428,5.05076 -8.08122,0 -15.15228,1.01015 -28.28427,1.01015 -13.13198,0 -12.12183,-2.0203 -25.25381,-2.0203 -13.13198,0 -24.24366,0 -29.29442,0 -5.05077,0 -14.14214,-3.03046 -19.1929,-4.04061 -5.05077,-1.01015 -15.15229,-9.09137 -15.15229,-9.09137 l -4.04061,-6.06092 -2.02031,-7.07107 z"
       id="path3028"
       inkscape:connector-curvature="0" />
    <path
       style="fill:#c87137;stroke:#000000;stroke-width:1px;stroke-linecap:butt;stroke-linejoin:miter;stroke-opacity:1"
       d="m 503.5468,-721.87302 c 6.42857,-1.42858 12.85714,-5 22.85714,-14.28572 10,-9.28571 22.14286,-20.71428 25,-25 2.85715,-4.28571 5.71429,-10 11.42857,-18.57143 5.71429,-8.57143 7.14286,-11.42857 16.42858,-19.28571 9.28571,-7.85714 15,-14.28572 18.57142,-17.14286 3.57143,-2.85714 6.42858,-7.85714 14.28572,-8.57143 7.85714,-0.71428 15,-2.14285 19.28571,-0.71428 4.28572,1.42857 7.85715,2.85714 10.71429,6.42857 2.85714,3.57143 5,5 6.42857,11.42857 1.42857,6.42857 3.57143,14.28571 5,20 1.42857,5.71429 2.14286,16.42857 2.85714,22.14286 0.71429,5.71428 2.14286,12.14285 2.14286,19.28571 0,7.14286 0,10.71429 0,20.71429 0,10 -2.14286,23.57143 -3.57143,27.85714 -1.42857,4.28571 -2.85714,10.71429 -3.57143,17.14286 -0.71428,6.42857 -2.14285,15.71428 -2.85714,20 -0.71429,4.28571 -0.71429,12.85714 -0.71429,18.57143 0,5.71428 0,14.28571 0,19.28571 0,5 0,15 -1.42857,20.71429 -1.42857,5.71428 -4.28571,10.71428 -10,12.14285 -5.71428,1.42857 -3.57143,4.28572 -12.85714,-4.28571 -9.28571,-8.57143 -11.42857,-10.71429 -17.85714,-18.57143 -6.42857,-7.85714 -7.85715,-13.57143 -16.42857,-20.71429 -8.57143,-7.14285 -15,-12.85714 -22.85715,-20.71428 -7.85714,-7.85714 -14.28571,-14.28572 -21.42857,-20.71429 -7.14286,-6.42857 -17.14286,-13.57143 -22.85714,-19.28571 -5.71429,-5.71429 -10.71429,-7.85714 -14.28572,-12.85714 -3.57142,-5 -4.28571,-15 -4.28571,-15 z"
       id="path3798"
       inkscape:connector-curvature="0" />
    <path
       style="fill:#c87137;stroke:#000000;stroke-width:1px;stroke-linecap:butt;stroke-linejoin:miter;stroke-opacity:1"
       d="m 294.26109,-720.44445 c 0,0 2.85714,-7.14286 2.85714,-16.42857 0,-9.28572 0.71428,-12.14286 0.71428,-21.42858 0,-9.28571 1.42858,-20.71428 1.42858,-26.42857 0,-5.71428 0.71428,-7.85714 -0.71429,-19.28571 -1.42857,-11.42857 -2.85714,-20.71429 -2.85714,-24.28571 0,-3.57143 0.71428,-7.14286 2.85714,-10.71429 2.14286,-3.57143 1.42857,-10 7.85714,-7.85714 6.42857,2.14285 9.28572,2.85714 12.14286,5 2.85714,2.14285 7.14286,1.42857 12.85714,13.57143 5.71429,12.14285 8.57143,19.28571 12.85715,25.71428 4.28571,6.42857 7.85714,14.28571 16.42857,22.14286 8.57143,7.85714 8.57143,10.71428 18.57143,17.85714 10,7.14286 13.57142,10.71429 20,13.57143 6.42857,2.85714 15.71428,6.42857 15.71428,6.42857 0,0 -2.85714,4.28571 -10.71428,7.85714 -7.85715,3.57143 -11.42858,5 -27.14286,8.57143 -15.71429,3.57143 -22.14286,5 -32.14286,6.42857 -10,1.42857 -21.42857,1.42857 -30.71428,4.28572 -9.28572,2.85714 -22.14286,7.85714 -22.14286,7.85714 z"
       id="path3800"
       inkscape:connector-curvature="0" />
    <path
       style="fill:#1a1a1a;fill-opacity:1;stroke:#000000;stroke-width:1px;stroke-linecap:butt;stroke-linejoin:miter;stroke-opacity:1"
       d="m 541.40394,-686.15874 c 0,0 5,-4.28571 10,-7.85714 5,-3.57143 13.57143,-7.14286 18.57143,-17.14286 5,-10 6.42857,-12.14286 9.28572,-22.14286 2.85714,-10 0.71428,-7.14285 5.71428,-15 5,-7.85714 11.42857,-10 11.42857,-10 0,0 12.14286,1.42858 15.71429,6.42858 3.57143,5 5.71428,5.71428 7.14286,14.28571 1.42857,8.57143 2.85714,16.42857 2.85714,22.85714 0,6.42857 0.71428,16.42857 0,21.42857 -0.71429,5 -2.85714,12.85715 -7.85714,17.85715 -5,5 -10,10.71428 -16.42858,12.14285 -6.42857,1.42858 -14.28571,3.57143 -20.71428,0.71429 -6.42857,-2.85714 -12.85714,-7.14286 -17.14286,-9.28571 -4.28571,-2.14286 -10.71428,-7.14286 -10.71428,-7.14286 z"
       id="path3802"
       inkscape:connector-curvature="0" />
    <path
       style="fill:#000000;fill-opacity:1;stroke:#000000;stroke-width:1px;stroke-linecap:butt;stroke-linejoin:miter;stroke-opacity:1"
       d="m 235.78396,-489.20315 c 0,0 1.60189,51.0853 -0.92349,53.1056 -2.52539,2.0203 -17.37518,1.2933 -16.66752,5.3033 0.75761,4.2932 5.80838,2.5254 9.59645,3.5356 6.31345,0 13.13198,-0.2526 16.41498,1.2627 2.75153,1.2699 24.24366,3.5355 24.24366,3.5355 0,0 -10.35406,-6.8185 -12.37437,-8.3337 -2.0203,-1.5153 -18.18275,-5.3034 -18.18275,-5.3034 l -1.05939,-46.3924 z"
       id="path5416"
       inkscape:connector-curvature="0"
       sodipodi:nodetypes="csscsccccc" />
    <path
       style="fill:#000000;stroke:#000000;stroke-width:1px;stroke-linecap:butt;stroke-linejoin:miter;stroke-opacity:1"
       d="m 214.5101,-517.48995 c -3.66072,1.3393 -5.71429,9.6429 -5.71429,9.6429 0,0 -1.96428,1.9643 -4.46428,0 l -3.03572,-2.6786 c 0,0 -1.25,5.3571 -0.35714,7.3214 0.89286,1.9643 4.10714,3.9286 5,3.9286 0.89286,0 4.82143,0.8929 6.42857,-0.1786 1.60715,-1.0714 3.42399,-3.5454 5.35715,-5.8928 2.49999,-3.0357 0.44643,-13.4822 -3.21429,-12.1429 z"
       id="path5418"
       inkscape:connector-curvature="0"
       sodipodi:nodetypes="zcccsscsz" />
    <path
       style="fill:#000000;stroke:#000000;stroke-width:1.2747159px;stroke-linecap:butt;stroke-linejoin:miter;stroke-opacity:1"
       d="m 273.80193,-514.66983 c 5.90859,5.84921 4.11347,11.42734 4.11347,11.42734 0,0 2.82583,2.21867 6.42235,0 l 4.3672,-3.02547 c 0,0 1.79826,6.05083 0.51378,8.2695 -1.28448,2.21867 -5.90856,4.43734 -7.19302,4.43734 -1.28448,0 -6.93615,1.00852 -9.24818,-0.20173 -2.31206,-1.21014 -4.92578,-4.00452 -7.70683,-6.6559 -3.59651,-3.42881 -0.37591,-13.89393 -0.37591,-13.89393 2.85714,-1.90476 6.07143,-2.02381 9.10714,-0.35715 z"
       id="path5418-6"
       inkscape:connector-curvature="0"
       sodipodi:nodetypes="ccccsscscc" />
  </g>
  <g
     class="snowy"
     inkscape:groupmode="layer"
     id="layer8"
     inkscape:label="mittens"
     style="display:inline"
     transform="translate(-20.825031,-31.159308)">
    <path
       style="fill:url(#linearGradient3985);fill-opacity:1;stroke:#000000;stroke-width:1px;stroke-linecap:butt;stroke-linejoin:miter;stroke-opacity:1"
       d="m 503.43867,901.30065 c 0,0 -33.77654,42.8777 -56.42858,57.1429 -24.08421,15.1671 -53.94637,18.184 -80.71428,27.8571 -10.7716,3.8925 -25.32062,2.9431 -32.14286,12.1429 -4.26412,5.75025 -4.29427,14.86855 -1.42857,21.42865 2.57518,5.895 8.70145,10.8346 15,12.1428 26.13025,5.4272 77.14286,-21.4285 77.14286,-21.4285 0,0 -42.50706,31.4503 -55.71429,53.5714 -12.28932,20.5837 -25.09969,46.0281 -19.28571,69.2857 5.10526,20.4225 24.25402,37.349 43.57143,45.7143 27.53043,11.9219 60.79879,7.5951 90,0.7143 29.12386,-6.8626 59.0476,-19.3533 80,-40.7143 18.34357,-18.7013 34.28571,-70.7143 34.28571,-70.7143 l 28.57143,-78.57145 -68.57143,-35.7143 z"
       id="path3977"
       inkscape:connector-curvature="0"
       sodipodi:nodetypes="csssascssssscccc" />
    <path
       style="fill:url(#linearGradient3993);fill-opacity:1;stroke:#000000;stroke-width:1px;stroke-linecap:butt;stroke-linejoin:miter;stroke-opacity:1"
       d="m 514.6759,870.00645 c 0,0 -21.54987,20.7171 -23.47831,34.4904 -1.97782,14.1261 5.46495,28.7996 13.43855,40.6266 12.42446,18.4289 30.67424,33.7881 50.83127,43.1521 20.63595,9.5866 46.2049,19.74145 67.32459,11.2737 16.29972,-6.5352 31.55709,-42.186 31.55709,-42.186 0,0 -38.4815,-2.5705 -57.86981,-9.0387 -19.37909,-6.4651 -37.01381,-18.7692 -51.5934,-33.0793 -12.94082,-12.7018 -30.20998,-45.2388 -30.20998,-45.2388 z"
       id="path3975"
       inkscape:connector-curvature="0"
       sodipodi:nodetypes="cassacssc" />
    <path
       style="fill:url(#linearGradient4018);fill-opacity:1;stroke:#000000;stroke-width:0.94028568px;stroke-linecap:butt;stroke-linejoin:miter;stroke-opacity:1;display:inline"
       d="m 217.55698,870.51915 c 0,0 -31.46324,40.697 -52.56389,54.2367 -22.43472,14.3958 -50.25167,17.2592 -75.186287,26.4404 -10.03388,3.6945 -23.58646,2.7934 -29.94146,11.5253 -3.97207,5.4578 -4.00016,14.1123 -1.33073,20.3388 2.39881,5.5952 8.10551,10.2836 13.97268,11.5253 24.34064,5.1511 76.910237,-16.2981 76.910237,-16.2981 0,0 -44.64659,25.81025 -56.949277,46.80625 -11.44764,19.5369 -23.38065,43.6873 -17.96486,65.762 4.75561,19.3839 22.5929,35.4496 40.587297,43.3894 25.64492,11.3156 56.63478,7.2088 83.83605,0.678 27.12922,-6.5136 45.91217,-20.3893 65.42957,-40.664 17.08725,-17.7502 41.02892,-65.0976 41.02892,-65.0976 l 26.61462,-74.57555 -63.87509,-33.8979 z"
       id="path3977-5"
       inkscape:connector-curvature="0"
       sodipodi:nodetypes="csssascssssscccc" />
    <path
       style="fill:url(#linearGradient3993-4);fill-opacity:1;stroke:#000000;stroke-width:0.94028568px;stroke-linecap:butt;stroke-linejoin:miter;stroke-opacity:1;display:inline"
       d="m 228.02459,840.81645 c 0,0 -20.07396,19.6635 -21.87032,32.7363 -1.84236,13.4077 5.09066,27.335 12.51817,38.5605 11.57353,17.4916 28.57341,32.0697 47.34992,40.9574 19.22263,9.0991 43.04041,18.7374 62.71365,10.7004 15.18338,-6.2028 29.3958,-40.0405 29.3958,-40.0405 0,0 -35.84597,-2.4398 -53.90641,-8.579 -18.05185,-6.1363 -34.4788,-17.8147 -48.05986,-31.397 -12.05452,-12.0558 -28.14095,-42.9381 -28.14095,-42.9381 z"
       id="path3975-2"
       inkscape:connector-curvature="0"
       sodipodi:nodetypes="cassacssc" />
  </g>
  <g
     class="mild"
     inkscape:groupmode="layer"
     id="layer4"
     inkscape:label="Fedora"
     style="display:inline"
     transform="translate(-20.825031,1021.2028)">
    <path
       sodipodi:type="arc"
       style="fill:url(#linearGradient5606);fill-opacity:1;stroke:#808080;stroke-width:1;stroke-miterlimit:4;stroke-opacity:1;stroke-dasharray:none"
       id="path5438"
       sodipodi:cx="228.57143"
       sodipodi:cy="179.50504"
       sodipodi:rx="248.57143"
       sodipodi:ry="91.428574"
       d="m 477.14285,179.50504 c 0,50.4946 -111.28922,91.42857 -248.57142,91.42857 C 91.289218,270.93361 -20,229.99964 -20,179.50504 -20,129.01043 91.289218,88.076462 228.57143,88.076462 c 137.2822,0 248.57142,40.933968 248.57142,91.428578 z"
       transform="matrix(0.90500336,-0.42540441,0.42540441,0.90500336,100.46951,-811.94754)" />
    <path
       id="path5438-9"
       style="fill:url(#linearGradient5608);fill-opacity:1;stroke:#8b8b8b;stroke-width:0.297005;stroke-miterlimit:4;stroke-opacity:1"
       d="m 491.97418,-896.34275 c 13.23845,26.16331 -38.10132,74.47807 -114.67056,107.91403 -76.56926,33.43596 -149.37278,39.3316 -162.61122,13.16829 -13.23845,-26.16331 38.10132,-74.47807 114.67057,-107.91403 76.56925,-33.43596 149.37277,-39.33161 162.61121,-13.16829 z"
       inkscape:connector-curvature="0" />
    <path
       style="fill:url(#linearGradient5598);fill-opacity:1;stroke:#a5a5a5;stroke-width:0.33274439;stroke-miterlimit:4;stroke-opacity:1"
       d="m 515.39666,-846.52977 c 7.56963,32.73991 -35.07108,70.14226 -117.75198,109.0071 -82.6809,38.86486 -166.1151,47.54637 -175.59061,15.30639 -38.22369,-130.05422 40.63743,-81.77261 123.31834,-120.63746 82.68089,-38.86485 142.51485,-122.65883 170.02425,-3.67603 z"
       id="path5438-9-4"
       inkscape:connector-curvature="0"
       sodipodi:nodetypes="sssss" />
  </g>
  <g
     class="cloudy"
     inkscape:groupmode="layer"
     id="layer7"
     inkscape:label="Tear"
     style="display:inline"
     transform="translate(-20.825031,-31.159308)">
    <path
       style="fill:url(#linearGradient3828);fill-opacity:1;stroke:#000000;stroke-width:1px;stroke-linecap:butt;stroke-linejoin:miter;stroke-opacity:1"
       d="m 472.84693,507.01645 c 1.25001,16.9643 -15,16.4286 -11.42857,29.2857 3.57143,12.8572 13.99133,9.1687 18.21429,3.75 4.22295,-5.4187 0.35714,-11.6071 -1.78572,-15.1786 -2.14285,-3.5714 -5,-17.8571 -5,-17.8571 z"
       id="path3820"
       inkscape:connector-curvature="0"
       sodipodi:nodetypes="cszsc" />
    <path
       style="fill:url(#linearGradient4055);fill-opacity:1;stroke:#000000;stroke-width:1px;stroke-linecap:butt;stroke-linejoin:miter;stroke-opacity:1"
       d="m 168.69547,983.45505 c 0,0 15.37945,28.04125 28.28427,36.36555 22.991,14.8304 79.80206,19.1929 79.80206,19.1929 0,0 -26.41071,48.0277 -49.49748,59.599 -29.23806,14.6544 -70.09532,22.1326 -97.9848,5.0507 -14.78138,-9.0534 -23.58512,-30.3066 -21.2132,-47.4771 4.31841,-31.2613 60.60915,-72.73105 60.60915,-72.73105 z"
       id="path4047"
       inkscape:connector-curvature="0"
       sodipodi:nodetypes="cacsssc" />
  </g>
  <g
     class="sunny"
     inkscape:groupmode="layer"
     id="layer3"
     inkscape:label="Shades"
     style="display:inline"
     transform="translate(-20.825031,1021.2028)">
    <path
       style="fill:url(#linearGradient3849);fill-opacity:1;stroke:#000000;stroke-width:1px;stroke-linecap:butt;stroke-linejoin:miter;stroke-opacity:1"
       d="m 205.33252,-654.96996 336.07143,45.17858 -1.42857,15.71428 -42.89272,-4.63016 c 0,0 0.74986,-2.42341 -8.53585,21.77302 -14.44978,37.65282 -28.57143,51.42857 -50,52.85714 -21.42857,1.42857 -77.14286,-10 -81.42857,-15.71428 -4.28572,-5.71429 -4.28572,-41.42857 -7.14286,-51.42857 -2.85714,-10 -7.14286,-12.85715 -11.42857,-17.14286 -4.28572,-4.28572 -4.28572,-4.28572 -18.57143,-4.28572 -14.28572,0 -18.57143,2.85715 -18.57143,2.85715 0,0 -20,41.42857 -31.42857,48.57143 -11.42857,7.14285 -52.85714,12.85714 -60,10 -7.14286,-2.85715 -14.28572,-20 -14.28572,-30 0,-10 20,-60 20,-60 l -14.64285,-1.96429 z"
       id="path3804"
       inkscape:connector-curvature="0"
       sodipodi:nodetypes="ccccsssssscsssccc" />
  </g>
  <g
     class="cold"
     inkscape:groupmode="layer"
     id="layer6"
     inkscape:label="Beanie"
     style="display:inline"
     transform="translate(-20.825031,1021.2028)">
    <path
       style="fill:url(#linearGradient5688);fill-opacity:1;stroke:#000000;stroke-width:1px;stroke-linecap:butt;stroke-linejoin:miter;stroke-opacity:1"
       d="m 288.5468,-775.44445 c -10.83733,-39.49995 -7.42487,-58.57191 15.67875,-82.21906 14.41433,-9.36643 10.10858,-23.31009 40.0533,-25.96252 13.7861,2.68288 30.16789,-16.91798 45.54477,-36.09818 8.28512,-17.89984 23.71884,-22.69816 52.1173,-22.84213 29.38704,3.40571 54.07058,-5.77482 83.24488,-7.18163 21.6461,-0.62056 50.09326,-4.38067 65.58318,10.77056 31.01381,10.8345 41.19609,20.18241 56.46087,51.44996 4.99481,22.48542 35.70051,37.61473 55.32948,52.44236 12.41402,13.14832 12.66153,42.9352 1.24567,61.62825 -15.02388,10.361 -9.43971,28.93639 5.72133,48.94422 5.03595,15.42232 14.35698,39.87081 -6.77038,51.3361 -21.24574,5.39652 -43.0317,-3.82442 -64.51795,-4.25106 -75.21058,-7.8645 -153.56892,-10.82847 -222.50849,-45.40049 -42.10833,-18.22398 -84.85639,-34.91415 -127.18271,-52.61638 z"
       id="path5661"
       inkscape:connector-curvature="0"
       sodipodi:nodetypes="ccccccccccccccc" />
    <path
       style="fill:url(#linearGradient5629);fill-opacity:1;stroke:#000000;stroke-width:1;stroke-miterlimit:4;stroke-opacity:1;stroke-dasharray:none;display:inline"
       d="m 249.41288,-761.5045 c 24.78181,-31.45211 112.63014,-31.24436 248.4582,-3.99012 135.82805,27.25425 241.58298,79.11816 219.52625,111.5144 -88.97568,130.68452 -131.01656,36.60036 -266.84461,9.34612 -135.82808,-27.25425 -291.2013,-2.56767 -201.13984,-116.8704 z"
       id="path5438-9-4-8"
       inkscape:connector-curvature="0"
       sodipodi:nodetypes="sssss" />
    <path
       style="fill:url(#linearGradient5700);fill-opacity:1;stroke:#000000;stroke-width:1px;stroke-linecap:butt;stroke-linejoin:miter;stroke-opacity:1"
       d="m 499.29453,-956.00645 c 1.78572,9.28571 22.94009,28.36222 30.08294,29.79079 7.14286,1.42857 21.42857,-11.42857 30.71429,-7.85714 5.2069,2.00265 23.57143,27.14285 23.57143,27.14285 0,0 11.42857,7.14286 25,-3.57142 13.57143,-10.71429 23.57143,-27.85715 17.85714,-39.28572 -5.71429,-11.42857 -31.42857,-31.42857 -48.57143,-32.85714 -17.14286,-1.42857 -57.98544,-1.34485 -63.57143,2.14286 -6.85814,4.28199 -15.08294,24.49492 -15.08294,24.49492 z"
       id="path5692"
       inkscape:connector-curvature="0"
       sodipodi:nodetypes="csscssssc" />
  </g>
  <g
     class="windy"
     inkscape:groupmode="layer"
     id="layer5"
     inkscape:label="Scarf"
     style="display:inline"
     transform="translate(-20.825031,1021.2028)">
    <path
       style="fill:url(#linearGradient4779);fill-opacity:1;stroke:#000000;stroke-width:1px;stroke-linecap:butt;stroke-linejoin:miter;stroke-opacity:1"
       d="m 732.83251,-314.73017 c 15.71429,35.71429 21.42858,44.28572 24.28572,61.42858 2.85714,17.14285 1.42857,27.14285 4.28571,42.85714 2.85716,15.71428 7.14286,38.57143 8.57146,58.57143 1.4285,20 8.5714,54.285712 11.4285,70.000002 2.8572,15.71428 5.7143,24.28571 7.1429,47.14285 1.4286,22.85715 5.7143,45.71428 5.7143,54.28568 0,8.5715 -11.4286,10 -22.8572,15.7143 -11.42853,5.7143 -12.8571,8.5715 -28.57139,8.5715 -15.71428,0 -21.42857,0 -21.42857,0 0,0 -2.85714,-2.8572 -7.14285,-14.2858 -4.28572,-11.4285 -1.42858,-14.2857 -11.42858,-44.28568 -10,-30 -12.85714,-32.85714 -15.71428,-50 -2.85714,-17.14285 -7.14286,-28.57142 -11.42857,-51.428572 -4.28572,-22.85714 -4.28572,-32.85714 -7.14286,-48.57143 -2.85714,-15.71428 0,-22.85714 -2.85714,-37.14285 -2.85715,-14.28572 0,-10 -4.28572,-28.57143 -4.28571,-18.57143 -7.14285,-20 -7.14285,-30 0,-10 -8.57143,-15.71429 11.42857,-24.28572 20,-8.57142 67.14285,-30 67.14285,-30 z"
       id="path3873"
       inkscape:connector-curvature="0" />
    <path
       style="fill:url(#linearGradient4781);fill-opacity:1;stroke:#000000;stroke-width:1px;stroke-linecap:butt;stroke-linejoin:miter;stroke-opacity:1"
       d="m 165.68965,-364.73017 c 27.14286,25.71429 24.28572,30 55.71429,48.57143 31.42857,18.57143 34.28572,24.28572 64.28572,31.42857 30,7.14286 31.42857,12.85715 68.57143,8.57143 37.14285,-4.28571 48.57142,-1.42857 81.42857,-11.42857 32.85714,-10 24.28571,-4.28571 61.42857,-20 37.14286,-15.71428 21.42857,-2.85714 67.14286,-27.14286 45.71428,-24.28571 15.71428,-14.28571 58.57142,-31.42857 42.85715,-17.14285 31.42858,-7.14285 54.28572,-22.85714 22.85714,-15.71429 18.57143,-12.85714 35.71428,-24.28571 17.14286,-11.42858 12.85715,-12.85715 21.42858,-12.85715 8.57142,0 11.42857,2.85715 14.28571,12.85715 2.85714,10 4.28571,22.85714 5.71429,28.57142 1.42857,5.71429 1.42857,18.57143 2.85714,25.71429 1.42857,7.14286 2.85714,8.57143 4.28571,18.57143 1.42856,10 2.85716,35.71428 2.85716,35.71428 0,0 -10.00001,15.71429 -25.7143,25.71429 -15.71429,10 -27.14286,15.71429 -47.14286,21.42857 -20,5.71429 -40,11.42857 -71.42857,24.28572 -31.42857,12.85714 -32.85714,15.71428 -64.28571,22.85714 -31.42857,7.14286 -41.42857,8.57143 -75.71429,10 -34.28571,1.42857 -55.71428,4.28571 -91.42857,4.28571 -35.71429,0 -65.71429,4.28572 -88.57143,2.85715 -22.85714,-1.42858 -40.71428,-2.85715 -49.28571,-5.71429 -8.57143,-2.85714 -18.35294,-1.92436 -37.14286,-20.71428 -14.28572,-14.28572 -22.85714,-25.00001 -34.28571,-36.42858 -11.42858,-11.42857 -17.85715,-24.28571 -25.00001,-37.14285 -7.14286,-12.85715 -11.42857,-15.71429 -11.42857,-27.14286 0,-11.42857 8.57143,-31.42857 8.57143,-31.42857 z"
       id="path3871"
       inkscape:connector-curvature="0"
       sodipodi:nodetypes="csssssssssssssscsssssssssssscc" />
  </g>
  <g
     inkscape:groupmode="layer"
     id="layer2"
     inkscape:label="Umbrella"
     transform="translate(-20.825031,1021.2028)"
     style="display:inline">
    <path id="rainy"
       style="fill:none;stroke:#000000;stroke-width:8.39506435;stroke-linecap:butt;stroke-linejoin:miter;stroke-miterlimit:4;stroke-opacity:1;stroke-dasharray:none"
       d="M 507.48349,-640.67979 186.91267,-90.777358 c 0,0 -56.31651,95.4547195 -108.300967,41.50206 -51.98445,-53.952752 -15.16211,-136.956892 -15.16211,-136.956892 l 0,0"
       inkscape:connector-curvature="0" />
    <path
       style="fill:url(#linearGradient5390);fill-opacity:1;stroke:#000000;stroke-width:1.04938304px;stroke-linecap:butt;stroke-linejoin:miter;stroke-opacity:1"
       d="M 704.44634,-1020.0991 C 438.71258,-947.46674 248.79333,-777.85376 248.79333,-777.85376 140.04925,-903.30959 21.349723,-858.55634 21.349723,-858.55634 324.60787,-1004.5546 704.44634,-1020.0991 704.44634,-1020.0991 z"
       id="path5376"
       inkscape:connector-curvature="0"
       sodipodi:nodetypes="cccc" />
    <path
       style="fill:url(#linearGradient5398);fill-opacity:1;stroke:#000000;stroke-width:1.04938304px;stroke-linecap:butt;stroke-linejoin:miter;stroke-opacity:1"
       d="m 704.20704,-1019.8698 c -274.15762,77.03429 -456.17951,242.01604 -456.17951,242.01604 173.83736,-26.41176 258.84155,139.39537 258.84155,139.39537 z"
       id="path5378"
       inkscape:connector-curvature="0"
       sodipodi:nodetypes="cccc" />
    <path
       style="fill:url(#linearGradient5406);fill-opacity:1;stroke:#000000;stroke-width:1.04938304px;stroke-linecap:butt;stroke-linejoin:miter;stroke-opacity:1"
       d="m 704.43678,-1019.7231 -196.18926,379.94413 c 186.09023,-21.27615 259.60743,136.82754 259.60743,136.82754 3.52622,-385.02263 -63.41817,-516.77167 -63.41817,-516.77167 z"
       id="path5380"
       inkscape:connector-curvature="0"
       sodipodi:nodetypes="cccc" />
    <path
       style="fill:url(#linearGradient5414);fill-opacity:1;stroke:#000000;stroke-width:1.04938304px;stroke-linecap:butt;stroke-linejoin:miter;stroke-opacity:1"
       d="m 704.47501,-1020.6781 c 70.45393,173.87735 63.37984,518.09353 63.37984,518.09353 162.07965,-21.92839 244.29135,92.44114 244.29135,92.44114 -55.9038,-307.40349 -307.67119,-610.53467 -307.67119,-610.53467 z"
       id="path5382"
       inkscape:connector-curvature="0"
       sodipodi:nodetypes="cccc" />
  </g>
</svg>
